<mxfile host="65bd71144e">
    <diagram name="Page-1" id="njHVjZHX3ImE8OwHonOa">
        <mxGraphModel dx="2519" dy="1025" grid="1" gridSize="10" guides="1" tooltips="1" connect="1" arrows="1" fold="1" page="1" pageScale="1" pageWidth="850" pageHeight="1100" math="0" shadow="0">
            <root>
                <mxCell id="0"/>
                <mxCell id="1" parent="0"/>
                <mxCell id="2crV6PcJX_3TqPdOURPo-1" value="" style="whiteSpace=wrap;html=1;aspect=fixed;fontSize=13;" parent="1" vertex="1">
                    <mxGeometry x="120" y="40" width="790" height="790" as="geometry"/>
                </mxCell>
                <mxCell id="2crV6PcJX_3TqPdOURPo-2" value="Payment agent" style="shape=umlActor;html=1;verticalLabelPosition=bottom;verticalAlign=top;align=center;" parent="1" vertex="1">
                    <mxGeometry x="-90" y="360" width="70" height="110" as="geometry"/>
                </mxCell>
                <mxCell id="2crV6PcJX_3TqPdOURPo-3" value="&lt;font style=&quot;font-size: 18px;&quot;&gt;&lt;b&gt;Payment agent use case diagram&lt;/b&gt;&lt;/font&gt;" style="text;html=1;align=center;verticalAlign=middle;whiteSpace=wrap;rounded=0;" parent="1" vertex="1">
                    <mxGeometry x="380" y="50" width="307.5" height="70" as="geometry"/>
                </mxCell>
                <mxCell id="2crV6PcJX_3TqPdOURPo-5" value="Authentication" style="ellipse;whiteSpace=wrap;html=1;" parent="1" vertex="1">
                    <mxGeometry x="760" y="400" width="140" height="70" as="geometry"/>
                </mxCell>
                <mxCell id="2crV6PcJX_3TqPdOURPo-6" value="Track payments" style="ellipse;whiteSpace=wrap;html=1;" parent="1" vertex="1">
                    <mxGeometry x="240" y="130" width="140" height="70" as="geometry"/>
                </mxCell>
                <mxCell id="2crV6PcJX_3TqPdOURPo-8" value="Manage payments" style="ellipse;whiteSpace=wrap;html=1;" parent="1" vertex="1">
                    <mxGeometry x="240" y="340" width="140" height="70" as="geometry"/>
                </mxCell>
                <mxCell id="2crV6PcJX_3TqPdOURPo-9" value="View payments summaries" style="ellipse;whiteSpace=wrap;html=1;" parent="1" vertex="1">
                    <mxGeometry x="240" y="610" width="140" height="70" as="geometry"/>
                </mxCell>
                <mxCell id="2crV6PcJX_3TqPdOURPo-11" value="Record&amp;nbsp; payments" style="ellipse;whiteSpace=wrap;html=1;" parent="1" vertex="1">
                    <mxGeometry x="560" y="570" width="170" height="100" as="geometry"/>
                </mxCell>
                <mxCell id="2crV6PcJX_3TqPdOURPo-12" value="" style="edgeStyle=none;html=1;endArrow=block;endFill=0;endSize=12;verticalAlign=bottom;rounded=0;entryX=0.891;entryY=0.811;entryDx=0;entryDy=0;entryPerimeter=0;exitX=0.047;exitY=0.36;exitDx=0;exitDy=0;exitPerimeter=0;" parent="1" target="2crV6PcJX_3TqPdOURPo-8" edge="1" source="2crV6PcJX_3TqPdOURPo-11">
                    <mxGeometry width="160" relative="1" as="geometry">
                        <mxPoint x="510" y="680" as="sourcePoint"/>
                        <mxPoint x="570" y="490" as="targetPoint"/>
                    </mxGeometry>
                </mxCell>
                <mxCell id="2crV6PcJX_3TqPdOURPo-14" value="&amp;lt;&amp;lt;include&amp;gt;&amp;gt;" style="edgeStyle=none;html=1;startArrow=open;endArrow=none;startSize=12;verticalAlign=bottom;dashed=1;labelBackgroundColor=none;rounded=0;exitX=0;exitY=0.5;exitDx=0;exitDy=0;entryX=1;entryY=0.5;entryDx=0;entryDy=0;" parent="1" source="2crV6PcJX_3TqPdOURPo-5" edge="1" target="2crV6PcJX_3TqPdOURPo-8">
                    <mxGeometry width="160" relative="1" as="geometry">
                        <mxPoint x="470" y="490" as="sourcePoint"/>
                        <mxPoint x="400" y="487" as="targetPoint"/>
                    </mxGeometry>
                </mxCell>
                <mxCell id="2crV6PcJX_3TqPdOURPo-16" value="&amp;lt;&amp;lt;include&amp;gt;&amp;gt;" style="edgeStyle=none;html=1;startArrow=open;endArrow=none;startSize=12;verticalAlign=bottom;dashed=1;labelBackgroundColor=none;rounded=0;entryX=0.95;entryY=0.286;entryDx=0;entryDy=0;entryPerimeter=0;exitX=0.043;exitY=0.643;exitDx=0;exitDy=0;exitPerimeter=0;" parent="1" source="2crV6PcJX_3TqPdOURPo-5" target="2crV6PcJX_3TqPdOURPo-9" edge="1">
                    <mxGeometry width="160" relative="1" as="geometry">
                        <mxPoint x="500" y="580" as="sourcePoint"/>
                        <mxPoint x="750" y="520" as="targetPoint"/>
                    </mxGeometry>
                </mxCell>
                <mxCell id="2crV6PcJX_3TqPdOURPo-17" value="&amp;lt;&amp;lt;include&amp;gt;&amp;gt;" style="edgeStyle=none;html=1;startArrow=open;endArrow=none;startSize=12;verticalAlign=bottom;dashed=1;labelBackgroundColor=none;rounded=0;entryX=1;entryY=0.5;entryDx=0;entryDy=0;exitX=0.229;exitY=0.057;exitDx=0;exitDy=0;exitPerimeter=0;" parent="1" source="2crV6PcJX_3TqPdOURPo-5" target="2crV6PcJX_3TqPdOURPo-6" edge="1">
                    <mxGeometry width="160" relative="1" as="geometry">
                        <mxPoint x="450" y="200" as="sourcePoint"/>
                        <mxPoint x="840" y="300" as="targetPoint"/>
                    </mxGeometry>
                </mxCell>
                <mxCell id="2crV6PcJX_3TqPdOURPo-18" value="" style="edgeStyle=none;html=1;endArrow=none;verticalAlign=bottom;rounded=0;entryX=0;entryY=0.5;entryDx=0;entryDy=0;" parent="1" source="2crV6PcJX_3TqPdOURPo-2" target="2crV6PcJX_3TqPdOURPo-6" edge="1">
                    <mxGeometry width="160" relative="1" as="geometry">
                        <mxPoint x="-20" y="420" as="sourcePoint"/>
                        <mxPoint x="140" y="420" as="targetPoint"/>
                    </mxGeometry>
                </mxCell>
                <mxCell id="2crV6PcJX_3TqPdOURPo-20" value="" style="edgeStyle=none;html=1;endArrow=none;verticalAlign=bottom;rounded=0;entryX=0.007;entryY=0.386;entryDx=0;entryDy=0;entryPerimeter=0;" parent="1" source="2crV6PcJX_3TqPdOURPo-2" target="2crV6PcJX_3TqPdOURPo-8" edge="1">
                    <mxGeometry width="160" relative="1" as="geometry">
                        <mxPoint x="30" y="470" as="sourcePoint"/>
                        <mxPoint x="190" y="470" as="targetPoint"/>
                    </mxGeometry>
                </mxCell>
                <mxCell id="2crV6PcJX_3TqPdOURPo-21" value="" style="edgeStyle=none;html=1;endArrow=none;verticalAlign=bottom;rounded=0;entryX=0;entryY=0.5;entryDx=0;entryDy=0;" parent="1" source="2crV6PcJX_3TqPdOURPo-2" target="2crV6PcJX_3TqPdOURPo-9" edge="1">
                    <mxGeometry width="160" relative="1" as="geometry">
                        <mxPoint x="90" y="540" as="sourcePoint"/>
                        <mxPoint x="250" y="540" as="targetPoint"/>
                    </mxGeometry>
                </mxCell>
            </root>
        </mxGraphModel>
    </diagram>
</mxfile>